<?xml version="1.0" standalone="no"?>
<!DOCTYPE svg PUBLIC "-//W3C//DTD SVG 20010904//EN"
 "http://www.w3.org/TR/2001/REC-SVG-20010904/DTD/svg10.dtd">
<svg version="1.0" xmlns="http://www.w3.org/2000/svg"
 width="139.000000pt" height="139.000000pt" viewBox="0 0 139.000000 139.000000"
 preserveAspectRatio="xMidYMid meet">
<metadata>
Created by potrace 1.14, written by Peter Selinger 2001-2017
</metadata>
<g transform="translate(0.000000,139.000000) scale(0.100000,-0.100000)"
fill="#000000" stroke="none">
<path d="M666 1381 c-4 -5 3 -7 14 -4 23 6 26 13 6 13 -8 0 -17 -4 -20 -9z"/>
<path d="M717 1369 c7 -7 15 -10 18 -7 3 3 -2 9 -12 12 -14 6 -15 5 -6 -5z"/>
<path d="M727 1294 c-18 -24 -48 -27 -78 -8 -8 4 -9 3 -5 -4 4 -7 4 -12 -1
-12 -25 -1 -35 -23 -40 -91 -3 -41 -9 -80 -13 -88 -4 -8 -39 -25 -77 -37 -181
-59 -304 -180 -364 -359 -8 -24 -14 -83 -13 -150 0 -163 41 -265 154 -381 121
-124 343 -186 540 -150 152 28 302 141 368 276 152 310 -6 659 -344 763 -37
11 -69 27 -74 37 -5 10 -10 48 -11 85 -1 58 -5 68 -26 82 -22 15 -23 17 -7 34
10 11 15 21 13 23 -2 2 -12 -7 -22 -20z"/>
</g>
</svg>
