<svg width="17" height="17" viewBox="0 0 17 17" fill="none" xmlns="http://www.w3.org/2000/svg">
<path d="M16.7357 7.92893H14.9481L16.3519 6.5251C16.3864 6.49057 16.4064 6.44276 16.4064 6.39495C16.4064 6.34581 16.3864 6.29799 16.3519 6.26346L15.8047 5.71628C15.7699 5.68181 15.7229 5.66247 15.6739 5.66247C15.6249 5.66247 15.5779 5.68181 15.5431 5.71628L13.3317 7.92893H9.87995L12.321 5.48784H15.4488C15.551 5.48784 15.6334 5.40549 15.6334 5.30323V4.52893C15.6334 4.48112 15.6148 4.43331 15.5789 4.39877C15.5444 4.36292 15.4979 4.34432 15.4488 4.34432H13.4632L14.7276 3.08127C14.7621 3.04674 14.7821 2.99893 14.7821 2.95112C14.7821 2.90198 14.7621 2.85417 14.7276 2.81963L14.1804 2.27245C14.1456 2.23798 14.0986 2.21864 14.0496 2.21864C14.0006 2.21864 13.9536 2.23798 13.9188 2.27245L12.6544 3.53815V1.55127C12.6544 1.50346 12.6358 1.45565 12.5999 1.42112C12.5654 1.38526 12.5189 1.36667 12.4698 1.36667H11.6968C11.5946 1.36667 11.5122 1.44901 11.5122 1.55127V4.67901L9.07112 7.1201V3.66831L11.2838 1.45698C11.3182 1.42216 11.3376 1.37515 11.3376 1.32616C11.3376 1.27716 11.3182 1.23015 11.2838 1.19534L10.7366 0.64815C10.7021 0.613618 10.6556 0.593696 10.6064 0.593696C10.5573 0.593696 10.5095 0.613618 10.4763 0.64815L9.07112 2.05198V0.264321C9.07112 0.162056 8.98878 0.0797119 8.88651 0.0797119H8.11354C8.01128 0.0797119 7.92893 0.162056 7.92893 0.264321V2.05198L6.5251 0.64815C6.45604 0.577759 6.33253 0.577759 6.26346 0.64815L5.71628 1.19534C5.68181 1.23015 5.66247 1.27716 5.66247 1.32616C5.66247 1.37515 5.68181 1.42216 5.71628 1.45698L7.9276 3.66831V7.1201L5.48784 4.67901V1.55127C5.48784 1.44901 5.40549 1.36667 5.30323 1.36667H4.52893C4.47979 1.36667 4.43331 1.38526 4.39877 1.42112C4.36424 1.45565 4.34432 1.50213 4.34432 1.55127V3.53549L3.08127 2.27112C3.04646 2.23665 2.99945 2.21731 2.95045 2.21731C2.90146 2.21731 2.85445 2.23665 2.81963 2.27112L2.27245 2.81831C2.23798 2.85312 2.21864 2.90013 2.21864 2.94913C2.21864 2.99812 2.23798 3.04513 2.27245 3.07995L3.53682 4.34299H1.55127C1.44901 4.34299 1.36667 4.42534 1.36667 4.5276V5.3019C1.36667 5.35104 1.38526 5.39753 1.42112 5.43206C1.45565 5.46792 1.50346 5.48651 1.55127 5.48651H4.67901L7.1201 7.92893H3.66831L1.45698 5.71628C1.42216 5.68181 1.37515 5.66247 1.32616 5.66247C1.27716 5.66247 1.23015 5.68181 1.19534 5.71628L0.64815 6.26346C0.630938 6.28062 0.617283 6.30101 0.607965 6.32346C0.598648 6.34591 0.593852 6.36998 0.593852 6.39428C0.593852 6.41859 0.598648 6.44266 0.607965 6.4651C0.617283 6.48755 0.630938 6.50794 0.64815 6.5251L2.05198 7.92893H0.264321C0.162056 7.92893 0.0797119 8.0126 0.0797119 8.11354V8.88651C0.0797119 8.98878 0.162056 9.07112 0.264321 9.07112H2.05198L0.64815 10.4736C0.613618 10.5095 0.593696 10.5546 0.593696 10.6051C0.593696 10.6529 0.61229 10.7007 0.64815 10.7353L1.19534 11.2824C1.2312 11.3196 1.27901 11.3369 1.32549 11.3369C1.37198 11.3369 1.41979 11.3196 1.45565 11.2824L3.66831 9.07112H7.1201L4.67901 11.5122H1.55127C1.44901 11.5122 1.36667 11.5946 1.36667 11.6968V12.4698C1.36667 12.5189 1.38659 12.5667 1.42112 12.6013C1.45565 12.6358 1.50213 12.6544 1.55127 12.6544H3.53682L2.27245 13.9174C2.23798 13.9523 2.21864 13.9993 2.21864 14.0483C2.21864 14.0973 2.23798 14.1443 2.27245 14.1791L2.81963 14.7263C2.83666 14.7435 2.85692 14.7572 2.87927 14.7665C2.90161 14.7758 2.92558 14.7806 2.94979 14.7806C2.974 14.7806 2.99797 14.7758 3.02031 14.7665C3.04266 14.7572 3.06293 14.7435 3.07995 14.7263L4.34432 13.4619V15.4474C4.34432 15.4966 4.36292 15.5431 4.39877 15.5776C4.43331 15.6121 4.47979 15.6321 4.52893 15.6321L5.3019 15.6307C5.40417 15.6307 5.48651 15.5484 5.48651 15.4461V12.321L7.92628 9.87995V13.3317L5.71495 15.5431C5.68048 15.5779 5.66114 15.6249 5.66114 15.6739C5.66114 15.7229 5.68048 15.7699 5.71495 15.8047L6.26213 16.3519C6.29667 16.3864 6.34315 16.405 6.39229 16.405C6.44143 16.405 6.48924 16.3864 6.52245 16.3519L7.92628 14.9481V16.7357C7.92628 16.838 8.00862 16.9203 8.11088 16.9203H8.88385C8.98612 16.9203 9.06846 16.8367 9.06846 16.7357V14.9481L10.4723 16.3519C10.5068 16.3864 10.5533 16.405 10.6024 16.405C10.6516 16.405 10.6981 16.3864 10.7326 16.3519L11.2798 15.8047C11.3143 15.7699 11.3336 15.7229 11.3336 15.6739C11.3336 15.6249 11.3143 15.5779 11.2798 15.5431L9.07112 13.3317V9.87862L11.5122 12.3197V15.4474C11.5122 15.5497 11.5946 15.6321 11.6968 15.6321H12.4698C12.5189 15.6321 12.5667 15.6135 12.5999 15.5789C12.6345 15.5444 12.6544 15.4979 12.6544 15.4474V13.4632L13.9188 14.7276C13.9358 14.7448 13.9561 14.7585 13.9784 14.7678C14.0007 14.7772 14.0247 14.782 14.0489 14.782C14.0731 14.782 14.0971 14.7772 14.1195 14.7678C14.1418 14.7585 14.1621 14.7448 14.1791 14.7276L14.7249 14.1804C14.7423 14.1633 14.756 14.1429 14.7654 14.1205C14.7748 14.098 14.7796 14.0739 14.7796 14.0496C14.7796 14.0253 14.7748 14.0012 14.7654 13.9787C14.756 13.9563 14.7423 13.9359 14.7249 13.9188L13.4606 12.6557H15.4448C15.5471 12.6557 15.6294 12.5721 15.6294 12.4711V11.6982C15.6294 11.5959 15.5471 11.5135 15.4448 11.5135H12.321L9.87995 9.07112H13.3317L15.5431 11.2824C15.5789 11.3196 15.6267 11.3369 15.6732 11.3369C15.7197 11.3369 15.7675 11.3196 15.8034 11.2824L16.3506 10.7353C16.3679 10.7182 16.3816 10.6978 16.391 10.6753C16.4004 10.6529 16.4052 10.6288 16.4052 10.6044C16.4052 10.5801 16.4004 10.556 16.391 10.5336C16.3816 10.5111 16.3679 10.4907 16.3506 10.4736L14.9481 9.07112H16.7357C16.838 9.07112 16.9203 8.98878 16.9203 8.88651V8.11354C16.9203 8.01128 16.838 7.92893 16.7357 7.92893V7.92893Z" fill="#40C0E7"/>
</svg>
