<svg width="25" height="25" viewBox="0 0 25 25" fill="none" xmlns="http://www.w3.org/2000/svg">
<path d="M23.6328 11.9141H20.9375L22.5781 10.2734C22.8125 10.0391 22.8125 9.6875 22.5781 9.45313C22.3437 9.21875 21.9922 9.21875 21.7578 9.45313L19.2969 11.9141H17.4609L18.4375 10.9375C18.6719 10.7031 18.6719 10.3516 18.4375 10.1172C18.2031 9.88281 17.8516 9.88281 17.6172 10.1172L15.8203 11.9141H13.9453L17.4609 8.39844H20.9375C21.25 8.39844 21.5234 8.125 21.5234 7.8125C21.5234 7.5 21.25 7.22656 20.9375 7.22656H18.6328L20.7813 5.07812C21.0156 4.84375 21.0156 4.49219 20.7813 4.25781C20.5469 4.02344 20.1953 4.02344 19.9609 4.25781L17.8125 6.40625V4.10156C17.7734 3.75 17.5391 3.51562 17.1875 3.51562C16.8359 3.51562 16.6016 3.78906 16.6016 4.10156V7.57812L13.0859 11.0937V9.21875L14.8828 7.42188C15.1172 7.1875 15.1172 6.83594 14.8828 6.60156C14.6484 6.36719 14.2969 6.36719 14.0625 6.60156L13.0859 7.57812V5.74219L15.5469 3.28125C15.7812 3.04687 15.7812 2.69531 15.5469 2.46094C15.3125 2.22656 14.9609 2.22656 14.7266 2.46094L13.0859 4.10156V1.36719C13.0859 1.05469 12.8125 0.78125 12.5 0.78125C12.1875 0.78125 11.9141 1.05469 11.9141 1.36719V4.0625L10.2734 2.42187C10.0391 2.1875 9.6875 2.1875 9.45313 2.42187C9.21875 2.65625 9.21875 3.00781 9.45313 3.24219L11.9141 5.70313V7.53906L10.9375 6.5625C10.7031 6.32812 10.3516 6.32812 10.1172 6.5625C9.88281 6.79687 9.88281 7.14844 10.1172 7.38281L11.9141 9.17969V11.0547L8.39844 7.53906V4.0625C8.39844 3.75 8.125 3.51562 7.8125 3.51562C7.5 3.51562 7.22656 3.78906 7.22656 4.10156V6.40625L5.07812 4.25781C4.84375 4.02344 4.49219 4.02344 4.25781 4.25781C4.02344 4.49219 4.02344 4.84375 4.25781 5.07812L6.40625 7.22656H4.10156C3.75 7.22656 3.51562 7.46094 3.51562 7.8125C3.51562 8.16406 3.78906 8.39844 4.10156 8.39844H7.57812L11.0937 11.9141H9.21875L7.42188 10.1172C7.1875 9.88281 6.83594 9.88281 6.60156 10.1172C6.36719 10.3516 6.36719 10.7031 6.60156 10.9375L7.57812 11.9141H5.74219L3.28125 9.45313C3.04687 9.21875 2.69531 9.21875 2.46094 9.45313C2.22656 9.6875 2.22656 10.0391 2.46094 10.2734L4.10156 11.9141H1.36719C1.05469 11.9141 0.78125 12.1875 0.78125 12.5C0.78125 12.8125 1.05469 13.0859 1.36719 13.0859H4.0625L2.42187 14.7266C2.1875 14.9609 2.1875 15.3125 2.42187 15.5469C2.53906 15.6641 2.69531 15.7031 2.85156 15.7031C3.00781 15.7031 3.16406 15.6641 3.28125 15.5469L5.74219 13.0859H7.57812L6.5625 14.0625C6.32812 14.2969 6.32812 14.6484 6.5625 14.8828C6.67969 15 6.83594 15.0391 6.99219 15.0391C7.14844 15.0391 7.30469 15 7.42188 14.8828L9.21875 13.0859H11.0937L7.57812 16.6016H4.10156C3.75 16.6016 3.51562 16.875 3.51562 17.1875C3.51562 17.5 3.78906 17.7734 4.10156 17.7734H6.40625L4.25781 19.9219C4.02344 20.1563 4.02344 20.5078 4.25781 20.7422C4.375 20.8594 4.53125 20.8984 4.6875 20.8984C4.84375 20.8984 5 20.8594 5.11719 20.7422L7.26563 18.5937V20.8984C7.26563 21.2109 7.53906 21.4844 7.85156 21.4844C8.16406 21.4844 8.4375 21.2109 8.4375 20.8984V17.4219L11.9531 13.9062V15.7813L10.1172 17.5781C9.88281 17.8125 9.88281 18.1641 10.1172 18.3984C10.2344 18.5156 10.3906 18.5547 10.5469 18.5547C10.7031 18.5547 10.8594 18.5156 10.9766 18.3984L11.9531 17.4219V19.2578L9.49219 21.7187C9.25781 21.9531 9.25781 22.3047 9.49219 22.5391C9.60937 22.6563 9.76562 22.6953 9.92187 22.6953C10.0781 22.6953 10.2344 22.6563 10.3516 22.5391L11.9922 20.8984V23.5938C11.9922 23.9063 12.2656 24.1797 12.5781 24.1797C12.8906 24.1797 13.1641 23.9063 13.1641 23.5938V20.8984L14.8047 22.5391C14.9219 22.6563 15.0781 22.6953 15.2344 22.6953C15.3906 22.6953 15.5469 22.6563 15.6641 22.5391C15.8984 22.3047 15.8984 21.9531 15.6641 21.7187L13.2031 19.2578V17.4219L14.1797 18.3984C14.2969 18.5156 14.4531 18.5547 14.6094 18.5547C14.7656 18.5547 14.9219 18.5156 15.0391 18.3984C15.2734 18.1641 15.2734 17.8125 15.0391 17.5781L13.2422 15.7813V13.9062L16.7578 17.4219V20.8984C16.7578 21.2109 17.0313 21.4844 17.3438 21.4844C17.6563 21.4844 17.9297 21.2109 17.9297 20.8984V18.5937L20.0781 20.7422C20.1953 20.8594 20.3516 20.8984 20.5078 20.8984C20.6641 20.8984 20.8203 20.8594 20.9375 20.7422C21.1719 20.5078 21.1719 20.1563 20.9375 19.9219L18.7891 17.7734H21.0938C21.4063 17.7734 21.6797 17.5 21.6797 17.1875C21.6797 16.875 21.4063 16.6016 21.0938 16.6016H17.6172L14.1016 13.0859H15.9766L17.7734 14.8828C17.8906 15 18.0469 15.0391 18.2031 15.0391C18.3594 15.0391 18.5156 15 18.6328 14.8828C18.8672 14.6484 18.8672 14.2969 18.6328 14.0625L17.6563 13.0859H19.4922L21.9531 15.5469C22.0703 15.6641 22.2266 15.7031 22.3828 15.7031C22.5391 15.7031 22.6953 15.6641 22.8125 15.5469C23.0469 15.3125 23.0469 14.9609 22.8125 14.7266L21.1719 13.0859H23.8672C24.1797 13.0859 24.4531 12.8125 24.4531 12.5C24.4531 12.1875 23.9453 11.9141 23.6328 11.9141" fill="#75D6FF"/>
</svg>
