<svg width="30" height="30" viewBox="0 0 30 30" fill="none" xmlns="http://www.w3.org/2000/svg">
<g clip-path="url(#clip0_416_6)">
<path d="M29.0512 17.9485L27.232 16.1302H27.818C28.9158 16.1302 30.0956 15.7917 30.0956 15.0511V15.0474V15.0436C30.0956 14.303 28.9144 13.9645 27.8161 13.9645H27.2386L28.8712 12.3324C29.648 11.5566 30.2442 10.4827 29.7211 9.95814C29.6311 9.86908 29.4698 9.76314 29.2064 9.76314C28.7039 9.76314 27.9919 10.1644 27.3473 10.808L24.5962 13.5595C24.4636 13.6913 24.345 13.8286 24.2339 13.9645H17.6011L22.3073 9.25829C22.3148 9.25267 22.3228 9.24329 22.3294 9.23626L22.3434 9.22314C22.6007 9.26289 22.8607 9.28263 23.1211 9.2822H27.0108C28.1095 9.2822 29.2912 8.9447 29.2912 8.20408C29.2912 7.46439 28.11 7.12595 27.0127 7.12595H24.4397L24.8531 6.71345C25.2478 6.31876 25.5633 5.88376 25.7405 5.48908C25.8656 5.20923 25.9027 4.99126 25.8942 4.81783V4.81408C25.8942 4.71517 25.8717 4.63033 25.8455 4.56189C25.8427 4.55533 25.8394 4.55158 25.8375 4.54689C25.8064 4.4698 25.7609 4.39934 25.7034 4.33923H25.7011C25.613 4.24923 25.4508 4.14283 25.1873 4.14283C24.6839 4.14283 23.9709 4.54408 23.3264 5.18955L22.9177 5.5983V3.28783C22.9177 2.19048 22.5811 1.00923 21.8395 1.00923C21.0989 1.00923 20.7623 2.19048 20.7623 3.28783L20.7633 7.17939C20.7633 7.36548 20.7759 7.54548 20.7937 7.72267L16.1405 12.3736V5.88142V5.82564C16.3402 5.6808 16.5375 5.51767 16.732 5.32408L19.4836 2.57345C20.2603 1.7958 20.8566 0.722358 20.333 0.199702C20.2448 0.110171 20.0841 0.0032959 19.8206 0.0032959C19.3177 0.0032959 18.6042 0.404546 17.9602 1.04908L16.1409 2.86783V2.28283C16.1409 1.18455 15.8048 0.0032959 15.0642 0.0032959L15.0614 0.0042334L15.0558 0.0032959C14.3161 0.0032959 13.9777 1.18595 13.9777 2.28376V2.86126L12.3445 1.22861C11.7009 0.584546 10.988 0.183765 10.4859 0.183765C10.2225 0.183765 10.0612 0.29064 9.97124 0.379233C9.82828 0.522202 9.63468 0.860171 9.93421 1.52908C10.1123 1.92376 10.4255 2.35876 10.8216 2.75251L13.5731 5.50408C13.7058 5.63673 13.8431 5.75251 13.9781 5.86408V12.3586L9.35156 7.73158C9.34406 7.72314 9.33468 7.7147 9.32718 7.70767L9.31312 7.69455C9.35296 7.44142 9.37359 7.17798 9.37359 6.91689V3.0272C9.37359 1.92939 9.03703 0.747671 8.29546 0.747671C7.55578 0.747671 7.21828 1.92798 7.21828 3.02626V5.59876L6.80484 5.18533C6.15984 4.54033 5.44781 4.14048 4.94718 4.14048C4.68187 4.14048 4.52062 4.24642 4.43156 4.33595H4.43015C4.42874 4.33923 4.43015 4.3397 4.42359 4.34158C4.42171 4.34439 4.42171 4.34673 4.42031 4.34908C4.36885 4.40286 4.32742 4.46541 4.29796 4.53376C4.28296 4.56705 4.27453 4.60126 4.26656 4.63548C4.25765 4.6608 4.2539 4.68845 4.24874 4.71845C4.15781 5.28564 4.65374 6.09423 5.27484 6.71626L5.68453 7.12501H3.37546C2.27671 7.12501 1.09593 7.46251 1.09593 8.20314C1.09593 8.94376 2.27718 9.27939 3.37546 9.27939H7.2689C7.45453 9.27939 7.63218 9.26814 7.80749 9.24892L12.5278 13.9692H5.8364C5.68116 13.7603 5.51136 13.5627 5.32827 13.3777L2.57671 10.627C1.93312 9.98251 1.22062 9.5822 0.717181 9.5822C0.454681 9.5822 0.292493 9.68908 0.2039 9.77767C-0.320163 10.3003 0.276087 11.3742 1.05327 12.15L2.87202 13.9688H2.28702C1.18874 13.9688 0.00749337 14.3072 0.00749337 15.0478L0.00936837 15.0516L0.00749337 15.0553C0.00749337 15.796 1.19015 16.1344 2.28796 16.1344H2.8664L1.23374 17.767C0.457025 18.5433 -0.139225 19.6167 0.3839 20.1413C0.472962 20.2299 0.634212 20.3358 0.898587 20.3358C1.40109 20.3358 2.11406 19.9345 2.75718 19.2909L5.50874 16.5394C5.64046 16.4081 5.75999 16.2708 5.87109 16.1344H12.3834L7.81874 20.6981C7.80937 20.7066 7.8014 20.7159 7.79109 20.7253L7.78171 20.7361C7.52466 20.6969 7.26502 20.6771 7.00499 20.677H3.11296C2.01562 20.677 0.832493 21.0136 0.832493 21.7542C0.832493 22.4949 2.01515 22.8324 3.11296 22.8324H5.68453L5.27109 23.2458C4.8764 23.64 4.56281 24.075 4.38468 24.4702C4.25859 24.7495 4.22343 24.968 4.23093 25.1419V25.1447C4.23656 25.2445 4.2539 25.3284 4.27921 25.3978C4.28262 25.4021 4.28516 25.4071 4.28671 25.4124C4.32468 25.5047 4.37577 25.5736 4.42218 25.6191C4.42406 25.62 4.42406 25.6219 4.42593 25.6228C4.42781 25.6247 4.42781 25.6247 4.42781 25.6256C4.51734 25.7142 4.67812 25.8202 4.94343 25.8202C5.44406 25.8202 6.15749 25.4203 6.80296 24.7749L7.21078 24.367V26.6752C7.21078 27.7739 7.54828 28.9547 8.28984 28.9547C8.48999 28.9547 8.8664 28.8516 9.12703 28.1686C9.28218 27.7645 9.36609 27.2339 9.36609 26.6747V22.7855C9.36609 22.5994 9.35343 22.4184 9.33562 22.2422L13.9781 17.5997V24.2784C13.7798 24.4233 13.5797 24.5859 13.3866 24.78L10.6359 27.5302C9.85828 28.3078 9.26109 29.3813 9.78609 29.9044C9.87515 29.9939 10.0373 30.1008 10.3008 30.1008C10.8042 30.1008 11.5153 29.6995 12.1594 29.0555L13.9781 27.2363V27.8213C13.9781 28.92 14.3166 30.1008 15.0562 30.1008V30.0999L15.06 30.1008C15.8006 30.1008 16.1372 28.9181 16.1372 27.8203V27.2433L17.7698 28.8755C18.4139 29.5195 19.1273 29.9203 19.6303 29.9203C19.8937 29.9203 20.0559 29.8134 20.1441 29.7249C20.287 29.5819 20.4816 29.2439 20.1811 28.5755C20.0048 28.1813 19.6898 27.7453 19.2947 27.3516L16.5431 24.6005C16.41 24.4678 16.2745 24.352 16.1372 24.2405V17.5852L20.7816 22.2295C20.7872 22.2361 20.7947 22.2422 20.8012 22.2497L20.8167 22.2647C20.7774 22.5217 20.7577 22.7814 20.7577 23.0414V26.932C20.7577 28.0308 21.0952 29.2116 21.8358 29.2116C22.5755 29.2116 22.9139 28.0303 22.9139 26.932V24.3605L23.3273 24.7734C23.9709 25.4184 24.6848 25.8197 25.1873 25.8197C25.4508 25.8197 25.6125 25.7128 25.7011 25.6233C25.7011 25.6214 25.703 25.6205 25.703 25.6205C25.7619 25.5608 25.8084 25.4901 25.8398 25.4124L25.8487 25.3936C25.8755 25.3252 25.8905 25.2436 25.8975 25.1484V25.1353C25.9031 24.9624 25.8661 24.7444 25.7437 24.4678C25.5675 24.0731 25.2525 23.6377 24.8564 23.2425L24.4477 22.8347H26.7577C27.8555 22.8347 29.0362 22.4963 29.0362 21.7575C29.0362 21.0159 27.855 20.6794 26.7577 20.6794H22.8623C22.6833 20.6794 22.5023 20.692 22.3237 20.7094L17.7487 16.1353H24.2695C24.4223 16.3406 24.5948 16.5413 24.7786 16.7269L27.5287 19.4775C28.1733 20.1216 28.8862 20.5224 29.3887 20.5224C29.6522 20.5224 29.813 20.4155 29.9025 20.3269C30.4261 19.8042 29.8294 18.7308 29.0527 17.9541" fill="#1B75BB"/>
<path d="M17.0391 2.27953V2.86453L18.8578 1.04578C19.3116 0.5925 19.7953 0.27 20.2177 0.112969C20.1239 0.0520313 19.9936 0 19.8127 0C19.3097 0 18.5963 0.40125 17.9522 1.04578L17.0278 1.97203C17.033 2.07375 17.0391 2.17687 17.0391 2.27953Z" fill="#1C679A"/>
<path d="M14.8777 2.85797V2.28047C14.8777 1.43672 15.0788 0.549844 15.5068 0.180938C15.3774 0.069375 15.2288 0 15.0582 0L15.0554 0.0009375L15.0497 0C14.3794 0 14.0428 0.9675 13.9828 1.96547L14.8777 2.85797" fill="#1C679A"/>
<path d="M21.3 1.27364C21.2125 1.47617 21.1048 1.66934 20.9785 1.8502C20.8313 2.26645 20.7558 2.78208 20.7558 3.28458L20.7568 7.17614C20.7568 7.36223 20.7694 7.54223 20.7872 7.71942L17.04 11.4657V12.3704L21.691 7.71942C21.6722 7.53892 21.6624 7.35761 21.6614 7.17614V3.28458C21.6614 2.44411 21.8621 1.55958 22.2863 1.18926C22.1569 1.07536 22.0064 1.00598 21.833 1.00598C21.6239 1.00598 21.4477 1.11051 21.3 1.27364" fill="#1C679A"/>
<path d="M8.16845 9.2761H7.83282L12.5203 13.9636H13.426L8.70564 9.24329C8.52714 9.26367 8.34764 9.274 8.16798 9.27422" fill="#1C679A"/>
<path d="M10.1503 1.9237C10.3247 2.20073 10.5492 2.48479 10.815 2.74964L13.5666 5.5012C13.6992 5.63386 13.8366 5.74964 13.9716 5.8612V11.4501L14.8777 12.3557V5.86073C14.7362 5.74826 14.601 5.62808 14.4727 5.50073L11.7202 2.74917C11.3255 2.35542 11.01 1.92042 10.8338 1.52573C10.5324 0.857295 10.7274 0.518857 10.8708 0.375889C10.9038 0.344826 10.9395 0.316894 10.9777 0.292451C10.7996 0.224482 10.6289 0.18042 10.4799 0.18042C10.2164 0.18042 10.0552 0.287295 9.96518 0.375889C9.85831 0.483232 9.72237 0.699326 9.78846 1.08323C9.95018 1.29511 10.0697 1.58808 10.1503 1.9237" fill="#1C679A"/>
<path d="M23.2275 20.7047C23.4066 20.6873 23.587 20.6747 23.7656 20.6747H23.1956L23.2275 20.7047Z" fill="#1C679A"/>
<path d="M23.2125 9.26013L23.1905 9.28404H24.0272C23.7656 9.28404 23.5017 9.26435 23.2496 9.22498L23.236 9.2381C23.2275 9.24513 23.2196 9.25451 23.2125 9.26013" fill="#1C679A"/>
<path d="M24.2339 13.965H25.1391C25.2511 13.8286 25.3697 13.6917 25.5005 13.56L28.2521 10.8084C28.7044 10.3561 29.1891 10.0336 29.6119 9.87516C29.4907 9.79929 29.3499 9.76051 29.2069 9.7636C28.7044 9.7636 27.9924 10.1648 27.3479 10.8084L24.5968 13.56C24.4636 13.6913 24.3455 13.8286 24.2339 13.965Z" fill="#1C679A"/>
<path d="M28.4297 19.4723L25.6791 16.7217C25.4955 16.5374 25.326 16.3397 25.1719 16.1301H24.2653C24.4181 16.3354 24.5906 16.5361 24.7744 16.7217L27.5245 19.4723C28.1691 20.1164 28.882 20.5172 29.3845 20.5172C29.5664 20.5172 29.6958 20.4665 29.7914 20.4051C29.3658 20.2481 28.883 19.9256 28.4297 19.4723Z" fill="#1C679A"/>
<path d="M8.68126 20.7328L8.6911 20.722L8.71735 20.6949L13.283 16.1311H12.3774L7.83423 20.6738H7.90267C8.16282 20.6738 8.42814 20.6939 8.68126 20.7328" fill="#1C679A"/>
<path d="M23.8181 5.59455L24.2269 5.1858C24.6792 4.73252 25.1639 4.40908 25.5876 4.25158C25.4663 4.17515 25.3251 4.13604 25.1817 4.13908C24.8048 4.13908 24.3112 4.36549 23.8181 4.74705V5.59455Z" fill="#1C679A"/>
<path d="M1.39078 20.2219C1.35225 20.1974 1.31601 20.1694 1.2825 20.1384C0.757972 19.6139 1.35657 18.5405 2.13188 17.7647L3.76547 16.132H3.1875C2.08875 16.132 0.906097 15.7936 0.906097 15.053C0.906097 15.052 0.908909 15.0501 0.908909 15.0492C0.908909 15.0483 0.906097 15.0464 0.906097 15.0455C0.906097 14.3048 2.08875 13.9664 3.18657 13.9664H3.77156L1.95375 12.1476C1.17516 11.3719 0.578909 10.298 1.10297 9.7753C1.13063 9.74765 1.1686 9.71952 1.21125 9.69093C1.03266 9.62437 0.862034 9.57983 0.711566 9.57983C0.449066 9.57983 0.286878 9.68671 0.198284 9.7753C-0.325778 10.298 0.270472 11.3719 1.04766 12.1476L2.86641 13.9664H2.28094C1.18266 13.9664 0.00140939 14.3048 0.00140939 15.0455L0.00328439 15.0492L0.00140939 15.053C0.00140939 15.7936 1.18407 16.132 2.28188 16.132H2.86032L1.22766 17.7647C0.450941 18.5405 -0.145309 19.6139 0.377816 20.1384C0.466878 20.227 0.628128 20.333 0.892503 20.333C1.04157 20.333 1.21219 20.2875 1.39078 20.2219Z" fill="#1C679A"/>
<path d="M14.8777 27.8156V27.2306L13.9828 28.1236C14.0414 29.1239 14.3789 30.0951 15.0497 30.0951V30.0942L15.0535 30.0951C15.2241 30.0951 15.3727 30.0257 15.5021 29.9142C15.0736 29.5453 14.873 28.6593 14.873 27.8156" fill="#1C679A"/>
<path d="M10.6842 29.8988C10.1616 29.3757 10.7573 28.3022 11.5341 27.5246L14.2856 24.7744C14.4792 24.5804 14.6775 24.4172 14.8772 24.2729V24.2424V17.5941L13.9711 18.5002V24.2715C13.7728 24.4163 13.5727 24.579 13.3795 24.773L10.6289 27.5232C9.85125 28.3008 9.25406 29.3743 9.77906 29.8974C9.86812 29.9869 10.0303 30.0938 10.2937 30.0938C10.4428 30.0938 10.6144 30.0483 10.7916 29.9808C10.753 29.957 10.717 29.9292 10.6842 29.8979" fill="#1C679A"/>
<path d="M18.6736 28.8703L17.0414 27.2382V27.8152C17.0414 27.9202 17.0349 28.0257 17.0306 28.1307L17.7685 28.8703C18.4125 29.5144 19.126 29.9152 19.6289 29.9152C19.8099 29.9152 19.9406 29.8646 20.0349 29.8032C19.6111 29.6452 19.126 29.3236 18.6736 28.8703" fill="#1C679A"/>
<path d="M21.6609 26.925V23.0344C21.6609 22.7747 21.6816 22.5094 21.7214 22.2577L21.7055 22.2427C21.6989 22.2352 21.6919 22.2291 21.6853 22.2225L17.0419 17.5781V18.4828L20.7806 22.223C20.7862 22.2295 20.7937 22.2356 20.8003 22.2431L20.8158 22.2581C20.7765 22.5152 20.7567 22.7748 20.7567 23.0348V26.9255C20.7567 27.4336 20.8327 27.9534 20.9845 28.3734C21.0197 28.4395 21.0577 28.5052 21.0858 28.5684C21.1134 28.6294 21.1322 28.6833 21.1514 28.7386C21.3211 29.0222 21.5466 29.205 21.8348 29.205C22.0083 29.205 22.1583 29.1356 22.2872 29.0212C21.8616 28.6514 21.6609 27.7659 21.6609 26.925" fill="#1C679A"/>
<path d="M24.2302 24.7678L23.8177 24.3549V25.2033C24.3136 25.5872 24.8068 25.8145 25.185 25.8145C25.366 25.8145 25.4963 25.763 25.59 25.7016C25.1663 25.5445 24.6825 25.2211 24.2302 24.7678" fill="#1C679A"/>
<path d="M3.36938 9.27608H4.27313C3.17625 9.27608 1.99547 8.94045 1.99359 8.19983C1.99359 7.45874 3.17625 7.1217 4.27313 7.1217H3.36938C2.27063 7.1217 1.08984 7.4592 1.08984 8.19983C1.08984 8.94045 2.27063 9.27608 3.36938 9.27608Z" fill="#1C679A"/>
<path d="M7.70347 5.1797L8.11691 5.59314V3.02064C8.11691 2.1797 8.318 1.29423 8.74363 0.92439C8.61285 0.810483 8.46378 0.741577 8.28941 0.741577C7.54972 0.741577 7.21222 1.92189 7.21222 3.02017V4.7433C7.37675 4.87267 7.54269 5.01845 7.70347 5.1797Z" fill="#1C679A"/>
<path d="M8.11032 26.6704V24.3623L7.7011 24.7701C7.54527 24.9274 7.37928 25.0743 7.20422 25.2098V26.6704C7.20422 27.7692 7.54172 28.95 8.28329 28.95C8.39438 28.95 8.56313 28.9139 8.73376 28.7662C8.3086 28.3959 8.11032 27.5114 8.11032 26.6704" fill="#1C679A"/>
<path d="M5.67656 7.12127H6.58125L6.17344 6.71252C5.55047 6.09049 5.05359 5.28189 5.14641 4.71471C5.14885 4.68665 5.15451 4.65897 5.16328 4.63221C5.17078 4.59799 5.18109 4.56377 5.19469 4.53049C5.22984 4.44986 5.27438 4.39033 5.31703 4.3458C5.31984 4.34299 5.31984 4.34533 5.32266 4.3383C5.32359 4.33643 5.32641 4.33549 5.32313 4.33268H5.325C5.35266 4.30455 5.39062 4.27596 5.43328 4.2483C5.25328 4.18268 5.08266 4.13721 4.93453 4.13721C4.66922 4.13721 4.50797 4.24314 4.41891 4.33268H4.41797C4.41656 4.33596 4.4175 4.33643 4.41141 4.3383C4.40953 4.34111 4.40953 4.34346 4.40813 4.3458C4.35667 4.39958 4.31524 4.46213 4.28578 4.53049C4.27078 4.56377 4.26234 4.59799 4.25437 4.63221C4.24547 4.65752 4.24172 4.68518 4.23656 4.71518C4.14562 5.28236 4.64156 6.09096 5.26266 6.71299L5.67234 7.12127" fill="#1C679A"/>
<path d="M1.73298 21.75C1.73298 21.0094 2.91423 20.6729 4.01251 20.6729H3.10688C2.00954 20.6729 0.826416 21.0094 0.826416 21.75C0.826416 22.4907 2.00907 22.8282 3.10688 22.8282H4.01251C2.91423 22.8282 1.73298 22.4907 1.73298 21.75Z" fill="#1C679A"/>
<path d="M5.32645 25.6214L5.32551 25.6186C5.32458 25.6177 5.32176 25.6158 5.32504 25.6148C5.26691 25.5554 5.2209 25.4852 5.18958 25.4081C5.18864 25.4077 5.18911 25.3988 5.18395 25.3936C5.15309 25.3126 5.13613 25.2271 5.13379 25.1405V25.1377C5.12536 24.9642 5.16286 24.7453 5.28755 24.4659C5.46473 24.0703 5.77973 23.6358 6.17395 23.2416L6.58739 22.8281H5.6827L5.26926 23.2416C4.87458 23.6358 4.56098 24.0708 4.38286 24.4659C4.25676 24.7453 4.22161 24.9637 4.22911 25.1377V25.1405C4.23473 25.2403 4.25208 25.3242 4.27739 25.3936C4.28079 25.3979 4.28334 25.4028 4.28489 25.4081C4.32286 25.5005 4.37395 25.5694 4.42036 25.6148C4.42223 25.6158 4.42223 25.6177 4.42411 25.6186C4.42598 25.6205 4.42598 25.6205 4.42598 25.6214C4.51551 25.71 4.6763 25.8159 4.94161 25.8159C5.08973 25.8159 5.26036 25.7714 5.44036 25.7048C5.40131 25.6805 5.36459 25.6525 5.33067 25.6214" fill="#1C679A"/>
</g>
<defs>
<clipPath id="clip0_416_6">
<rect width="30" height="30" fill="white"/>
</clipPath>
</defs>
</svg>
