<svg width="20" height="20" viewBox="0 0 20 20" fill="none" xmlns="http://www.w3.org/2000/svg">
<path d="M18.6201 10.9656L13.9761 11.5127L11.25 9.93883L13.9761 8.36496L18.6201 8.91211C18.6457 8.91512 18.6712 8.9166 18.6963 8.9166C19.0186 8.9166 19.297 8.67535 19.3356 8.34742C19.3772 7.99391 19.1244 7.67355 18.7709 7.63191L15.8432 7.28699L17.6671 6.23398C17.9754 6.05598 18.081 5.6618 17.903 5.35351C17.725 5.04523 17.3309 4.93957 17.0226 5.11758L15.1987 6.17059L16.3638 3.46266C16.5045 3.13566 16.3535 2.75656 16.0265 2.61586C15.6996 2.4752 15.3204 2.62617 15.1797 2.95316L13.3315 7.24859L10.6611 8.79039V5.64254L13.4569 1.8943C13.6697 1.60895 13.6109 1.20512 13.3256 0.992305C13.0403 0.779492 12.6364 0.838242 12.4236 1.12359L10.6611 3.48656V1.5973C10.6611 1.24133 10.3725 0.952774 10.0165 0.952774C9.66061 0.952774 9.37202 1.24133 9.37202 1.5973V3.4866L7.60944 1.12359C7.39659 0.838242 6.99272 0.779531 6.70745 0.992305C6.42209 1.20516 6.36334 1.60898 6.57616 1.8943L9.37202 5.64258V8.85453L6.59034 7.24851L4.74217 2.95316C4.60147 2.62621 4.22237 2.4752 3.89538 2.61586C3.56838 2.75656 3.41737 3.1357 3.55807 3.46266L4.72323 6.17059L3.08706 5.22594C2.77877 5.04801 2.38459 5.15359 2.20659 5.46187C2.02862 5.77016 2.1342 6.16434 2.44252 6.34234L4.0787 7.28699L1.15096 7.63191C0.797446 7.67355 0.544634 7.99391 0.586275 8.34742C0.624907 8.67535 0.903306 8.91664 1.22557 8.9166C1.25073 8.9166 1.2762 8.91512 1.30178 8.91211L5.94584 8.36496L8.6719 9.93879L5.94584 11.5127L1.30182 10.9656C0.948189 10.924 0.627954 11.1767 0.586314 11.5303C0.544673 11.8838 0.797486 12.2041 1.151 12.2458L4.0787 12.5907L2.44256 13.5353C2.13428 13.7133 2.02866 14.1075 2.20663 14.4157C2.326 14.6225 2.54264 14.7381 2.76541 14.7381C2.87475 14.7381 2.98557 14.7102 3.08706 14.6516L4.72327 13.707L3.55807 16.415C3.41737 16.742 3.56842 17.1211 3.89538 17.2618C3.97572 17.2965 4.06231 17.3144 4.14983 17.3144C4.39956 17.3144 4.63725 17.1684 4.74221 16.9245L6.59041 12.6291L9.37205 11.0231V14.1709L6.5762 17.9191C6.36338 18.2045 6.42213 18.6083 6.70748 18.8211C6.81856 18.9043 6.95361 18.9492 7.09237 18.9491C7.28889 18.9491 7.48295 18.8595 7.60952 18.6898L9.37209 16.3268V18.4329C9.37209 18.7888 9.66065 19.0774 10.0166 19.0774C10.3726 19.0774 10.6612 18.7888 10.6612 18.4329V16.3269L12.4237 18.6898C12.6365 18.9752 13.0404 19.0339 13.3257 18.8211C13.611 18.6083 13.6698 18.2045 13.4569 17.9191L10.6612 14.1709V11.0872L13.3316 12.629L15.1798 16.9244C15.2847 17.1684 15.5224 17.3143 15.7721 17.3143C15.8597 17.3143 15.9462 17.2964 16.0266 17.2617C16.3536 17.121 16.5046 16.7419 16.3639 16.4149L15.1987 13.7069L17.0226 14.76C17.1204 14.8166 17.2313 14.8464 17.3443 14.8464C17.567 14.8464 17.7837 14.7308 17.9031 14.5241C18.0811 14.2158 17.9755 13.8216 17.6672 13.6436L15.8433 12.5906L18.771 12.2457C19.1245 12.2041 19.3773 11.8837 19.3357 11.5302C19.294 11.1768 18.9739 10.9239 18.6201 10.9656V10.9656Z" fill="#59CAFC"/>
</svg>
